<?xml version="1.0" encoding="UTF-8"?>
<svg version="1.1" xmlns="http://www.w3.org/2000/svg" width="1920" height="1920">
  <path d="M0 0 C633.6 0 1267.2 0 1920 0 C1920 633.6 1920 1267.2 1920 1920 C1286.4 1920 652.8 1920 0 1920 C0 1286.4 0 652.8 0 0 Z " fill="#F3F3F3" transform="translate(0,0)" />
  <path d="M0 0 C4.98051708 0.0076661 9.96100638 -0.00219165 14.94151943 -0.00973 C23.65572244 -0.02052848 32.36986962 -0.02025895 41.08407515 -0.01258852 C54.04268312 -0.00121322 67.00124424 -0.00705673 79.95985193 -0.01621344 C101.76716858 -0.03107802 123.57446435 -0.03165744 145.38178366 -0.02348329 C146.04476491 -0.02323491 146.70774616 -0.02298652 147.39081776 -0.02273061 C148.05487126 -0.02248182 148.71892476 -0.02223303 149.40310109 -0.0219767 C169.66031067 -0.01439743 189.91751119 -0.01245749 210.17472189 -0.01604463 C211.53294222 -0.01627707 212.89116255 -0.01650854 214.24938289 -0.01673904 C219.70795152 -0.0176705 225.16652014 -0.01862651 230.62508876 -0.01961833 C245.88262274 -0.02236892 261.14015675 -0.02408104 276.39769094 -0.02497675 C277.09239594 -0.02501768 277.78710094 -0.02505862 278.5028576 -0.0251008 C300.6284327 -0.02632804 322.75400465 -0.02295102 344.87957876 -0.01642801 C345.59685964 -0.01621726 346.31414051 -0.01600652 347.05315717 -0.01578938 C358.70022757 -0.01235483 370.34729791 -0.0086963 381.99436824 -0.00501886 C428.18367068 0.00954936 474.37294703 0.00887317 520.56224936 -0.00571062 C532.20354317 -0.0093744 543.84483699 -0.01300764 555.48613089 -0.01642801 C556.56142811 -0.01674503 556.56142811 -0.01674503 557.6584485 -0.01706845 C579.76163899 -0.02354013 601.8648273 -0.02627924 623.9680187 -0.02497675 C624.66220906 -0.02493599 625.35639941 -0.02489524 626.07162584 -0.02485325 C641.31240742 -0.02391568 656.55318878 -0.02201451 671.79397014 -0.01924524 C677.24756389 -0.01825788 682.70115765 -0.01731863 688.15475142 -0.01639311 C689.51137662 -0.01616094 690.86800183 -0.01592475 692.22462704 -0.01568452 C712.47471915 -0.01210846 732.72480105 -0.01514388 752.97489189 -0.02273061 C753.63787314 -0.02297899 754.3008544 -0.02322738 754.98392599 -0.02348329 C755.97655114 -0.02385536 755.97655114 -0.02385536 756.98922932 -0.02423495 C779.34159556 -0.03252178 801.69393557 -0.0294355 824.04629808 -0.01364106 C836.92412563 -0.00484117 849.80189096 -0.00424424 862.67971688 -0.01557958 C871.28853843 -0.02232043 879.89731023 -0.01809531 888.50612443 -0.00506528 C893.40636613 0.00205048 898.30648445 0.00455421 903.20672213 -0.00628323 C940.35735602 -0.08240225 940.35735602 -0.08240225 956.68285482 3.38540266 C958.15506491 3.68459011 959.62744933 3.98292102 961.1000058 4.28039895 C964.30499285 4.94308201 967.49593593 5.6414365 970.68285482 6.38540266 C970.68285482 7.04540266 970.68285482 7.70540266 970.68285482 8.38540266 C971.21910482 8.43696516 971.75535482 8.48852766 972.30785482 8.54165266 C981.3053954 9.84392827 988.79469348 14.11139508 996.68285482 18.38540266 C997.75148764 18.95645735 998.82012045 19.52751204 999.92113607 20.11587141 C1029.68374247 36.71197379 1052.30314014 63.8455642 1064.68285482 95.38540266 C1065.18043295 96.49657454 1065.67801107 97.60774641 1066.19066732 98.75259016 C1067.7183325 102.471775 1068.81070643 106.17431562 1069.74535482 110.07290266 C1069.91526937 110.76988264 1070.08518393 111.46686262 1070.2602474 112.18496321 C1073.50141962 125.76116467 1074.83249766 139.2233491 1074.83002584 153.16553877 C1074.83370253 154.30013724 1074.83737922 155.4347357 1074.84116732 156.60371594 C1074.8521175 160.37852444 1074.85603316 164.15330533 1074.85985678 167.92812727 C1074.86560365 170.64603529 1074.87276353 173.36393929 1074.8797695 176.08184431 C1074.89943424 184.21535246 1074.90958578 192.34886167 1074.91849729 200.48238762 C1074.92201219 203.55315924 1074.92615814 206.62392987 1074.93033695 209.69470065 C1074.94879252 223.25774783 1074.96453998 236.82079504 1074.9722349 250.38385294 C1074.97414437 253.6953233 1074.97606477 257.00679366 1074.97802084 260.31826399 C1074.97850458 261.14117879 1074.97898832 261.96409358 1074.97948672 262.81194519 C1074.98777879 276.12852196 1075.01310745 289.44500868 1075.04560152 302.76154617 C1075.0787792 316.4713032 1075.09669315 330.18101461 1075.09987914 343.89081196 C1075.10203398 351.57305059 1075.11063133 359.25515774 1075.13634031 366.93735693 C1075.15819404 373.48207901 1075.16602636 380.02663761 1075.15637353 386.57139204 C1075.15187116 389.90166243 1075.15571861 393.23132686 1075.17313498 396.56159399 C1075.24772289 411.6811202 1074.40859853 425.70692441 1070.68285482 440.38540266 C1070.48388275 441.19769988 1070.28491067 442.0099971 1070.07990914 442.84690939 C1067.42722197 453.67062941 1063.88624193 463.52394987 1058.68285482 473.38540266 C1058.21274984 474.28234846 1058.21274984 474.28234846 1057.73314779 475.19741438 C1051.00308751 487.87401496 1042.5435913 498.97219708 1032.68285482 509.38540266 C1031.91328451 510.20782454 1031.1437142 511.03024641 1030.35082357 511.87759016 C1003.65916986 539.56101776 964.70143541 554.86318872 926.63757588 555.92654187 C920.69897716 556.00628935 914.76289427 555.99412031 908.82426415 555.94485378 C905.08176418 555.9196987 901.33926786 555.92483015 897.59670006 555.92581849 C891.06850496 555.92362431 884.54057537 555.90328367 878.01246565 555.87038992 C868.30486946 555.82165484 858.59736755 555.80267228 848.88966514 555.78997517 C833.54595695 555.76940057 818.20235407 555.73149477 802.8587166 555.68114862 C778.51093849 555.60136841 754.16326051 555.56748532 729.81536712 555.54799034 C720.42779246 555.54030603 711.04021889 555.53128 701.65264528 555.52241228 C700.08868813 555.52094927 700.08868813 555.52094927 698.49313588 555.51945669 C673.7245738 555.4961185 648.95603331 555.46115238 624.1874935 555.42080305 C623.10490721 555.41905284 622.02232092 555.41730262 620.90692899 555.41549937 C595.63188104 555.37445714 570.35688366 555.32357947 545.08190268 555.25197981 C543.99354824 555.24889848 542.90519381 555.24581714 541.78385894 555.24264243 C533.00934387 555.2177271 524.23482968 555.1925036 515.46031575 555.1671883 C479.26845044 555.06305092 443.07676388 555.00601335 406.88474402 555.00278895 C401.77334128 555.00227999 396.66193886 555.00116111 391.55053633 554.99963186 C390.54470153 554.99933859 389.53886673 554.99904532 388.50255209 554.99874316 C372.33553804 554.99250349 356.169083 554.93554078 340.00226742 554.85851756 C323.76001646 554.78200571 307.51830968 554.7554818 291.27589133 554.78011916 C281.63379075 554.79314974 271.99364629 554.76712256 262.35187929 554.68471501 C255.90412405 554.63345602 249.45765357 554.633427 243.00982764 554.67419766 C239.34047051 554.69594303 235.67480879 554.69616861 232.00584009 554.63347719 C217.40217739 554.3985302 205.92603327 554.3297698 194.96951468 564.91433168 C193.79781587 566.12200512 192.63751492 567.34085362 191.48954858 568.57110827 C188.33282633 571.74111064 184.71993507 574.30741393 181.12035482 576.94790266 C174.77561054 581.73896117 168.57564215 586.67977696 162.42528646 591.71718977 C157.31967643 595.89093893 152.12698379 599.93052587 146.88597982 603.93227766 C137.79411951 610.87698277 128.86191349 618.028381 119.93724936 625.18569563 C116.01696695 628.32704611 112.06964672 631.42886985 108.09301107 634.49868391 C106.17156674 636.00282915 104.26568746 637.52152104 102.36644857 639.05337141 C95.82678319 644.3264819 89.24335783 649.50556642 82.49535482 654.51040266 C76.69030104 658.81856893 71.11142901 663.29571806 65.59301107 667.96743391 C62.59699576 670.4567406 59.53329082 672.84155243 56.43285482 675.19790266 C51.43484646 678.99762888 46.54222266 682.91002991 41.68285482 686.88540266 C35.82757399 691.6719729 29.9013677 696.34007656 23.88988607 700.92837141 C20.48431359 703.52942846 17.11245918 706.17232259 13.74535482 708.82290266 C13.1638265 709.28068098 12.58229818 709.7384593 11.98314779 710.21010969 C10.80495342 711.13799887 9.62689383 712.0660592 8.44896811 712.99428938 C5.52914434 715.29414503 2.60583589 717.58956211 -0.31714518 719.88540266 C-1.48382879 720.80204776 -2.65049545 721.71871444 -3.81714518 722.63540266 C-6.15047851 724.468736 -8.48381184 726.30206933 -10.81714518 728.13540266 C-11.39512857 728.58955549 -11.97311197 729.04370833 -12.56861002 729.51162337 C-13.73030344 730.42433614 -14.89208668 731.3369346 -16.05396158 732.24941633 C-19.0474818 734.60062777 -22.03921272 736.95406305 -25.02808268 739.31118391 C-46.75138274 756.43530342 -46.75138274 756.43530342 -56.31714518 755.38540266 C-61.19746551 753.69606101 -64.85517126 750.97585603 -67.31714518 746.38540266 C-70.68739353 735.71639559 -66.32807763 721.99115635 -62.99292643 711.72915266 C-62.25852649 709.18210085 -61.83605413 706.69405385 -61.44214518 704.07290266 C-60.16333627 695.90898663 -58.14165108 687.93879929 -56.17993814 679.91762923 C-55.16941458 675.7806018 -54.16703891 671.64163101 -53.16480143 667.50259016 C-45.80187899 637.12060101 -45.80187899 637.12060101 -42.81323893 625.49453352 C-41.16141943 618.99896909 -39.86382376 612.45027639 -38.68701822 605.85268782 C-36.78619794 595.30514062 -34.33611254 584.95673437 -31.69214518 574.57290266 C-31.28027158 572.93693945 -30.86881143 571.30087208 -30.45777018 569.66469954 C-30.06491267 568.10666307 -29.67169749 566.54871673 -29.27808268 564.99087141 C-29.09579111 564.26909209 -28.91349955 563.54731276 -28.72568399 562.80366133 C-28.00151046 559.96150593 -27.24503968 557.16908619 -26.31714518 554.38540266 C-26.8765983 554.39700423 -27.43605143 554.40860579 -28.01245768 554.42055891 C-30.78219797 554.45172962 -33.5474885 554.42411451 -36.31714518 554.38540266 C-37.32132486 554.38153548 -38.32550455 554.37766829 -39.36011393 554.37368391 C-68.34779956 553.3693316 -97.91324829 538.28795657 -119.31714518 519.38540266 C-120.29167643 518.54364485 -121.26620768 517.70188704 -122.27027018 516.83462141 C-133.49692713 506.98085309 -142.57430509 495.89205563 -150.26734049 483.1031761 C-151.26610147 481.4689244 -152.31776433 479.86735307 -153.37183268 478.26821516 C-166.42962583 457.48752489 -172.4872808 429.45266901 -172.45085794 405.09096907 C-172.4531235 403.97244582 -172.45538906 402.85392258 -172.45772327 401.70150469 C-172.46404001 397.96331427 -172.46323538 394.22516032 -172.46240885 390.48696516 C-172.46540186 387.80241891 -172.46877663 385.11787549 -172.47258646 382.43333052 C-172.48087665 375.90250928 -172.4836406 369.37169708 -172.48419884 362.84087102 C-172.48467495 357.52702911 -172.48673446 352.21319017 -172.48989946 346.8993492 C-172.49870305 331.80984317 -172.50331952 316.72034425 -172.50256899 301.63083564 C-172.50252903 300.81813865 -172.50248908 300.00544167 -172.50244791 299.16811751 C-172.50240703 298.35441942 -172.50236615 297.54072134 -172.50232403 296.70236574 C-172.50191806 283.53165689 -172.51147594 270.3609767 -172.52558628 257.19027613 C-172.53998422 243.64335491 -172.54685453 230.09644763 -172.5459925 216.54951857 C-172.54566162 208.95348015 -172.54836052 201.35747175 -172.55917055 193.76144026 C-172.56832084 187.29048905 -172.57041406 180.81958145 -172.56366113 174.34862654 C-172.56041807 171.05347028 -172.56136623 167.75841392 -172.56901438 164.46326254 C-172.60580196 147.50653917 -172.12794158 131.29618095 -168.00464518 114.76040266 C-167.78445719 113.86853255 -167.5642692 112.97666243 -167.33740885 112.05776594 C-160.77327664 86.12440881 -147.75510933 64.5014249 -129.31714518 45.38540266 C-128.47796549 44.47145735 -127.6387858 43.55751204 -126.77417643 42.61587141 C-92.64482272 6.52446711 -47.14346803 -0.1042632 0 0 Z " fill="#F3F3F3" transform="translate(508.31714517623186,581.6145973373204)" />
  <path d="M0 0 C4.98051708 0.0076661 9.96100638 -0.00219165 14.94151943 -0.00973 C23.65572244 -0.02052848 32.36986962 -0.02025895 41.08407515 -0.01258852 C54.04268312 -0.00121322 67.00124424 -0.00705673 79.95985193 -0.01621344 C101.76716858 -0.03107802 123.57446435 -0.03165744 145.38178366 -0.02348329 C146.04476491 -0.02323491 146.70774616 -0.02298652 147.39081776 -0.02273061 C148.05487126 -0.02248182 148.71892476 -0.02223303 149.40310109 -0.0219767 C169.66031067 -0.01439743 189.91751119 -0.01245749 210.17472189 -0.01604463 C211.53294222 -0.01627707 212.89116255 -0.01650854 214.24938289 -0.01673904 C219.70795152 -0.0176705 225.16652014 -0.01862651 230.62508876 -0.01961833 C245.88262274 -0.02236892 261.14015675 -0.02408104 276.39769094 -0.02497675 C277.09239594 -0.02501768 277.78710094 -0.02505862 278.5028576 -0.0251008 C300.6284327 -0.02632804 322.75400465 -0.02295102 344.87957876 -0.01642801 C345.59685964 -0.01621726 346.31414051 -0.01600652 347.05315717 -0.01578938 C358.70022757 -0.01235483 370.34729791 -0.0086963 381.99436824 -0.00501886 C428.18367068 0.00954936 474.37294703 0.00887317 520.56224936 -0.00571062 C532.20354317 -0.0093744 543.84483699 -0.01300764 555.48613089 -0.01642801 C556.56142811 -0.01674503 556.56142811 -0.01674503 557.6584485 -0.01706845 C579.76163899 -0.02354013 601.8648273 -0.02627924 623.9680187 -0.02497675 C624.66220906 -0.02493599 625.35639941 -0.02489524 626.07162584 -0.02485325 C641.31240742 -0.02391568 656.55318878 -0.02201451 671.79397014 -0.01924524 C677.24756389 -0.01825788 682.70115765 -0.01731863 688.15475142 -0.01639311 C689.51137662 -0.01616094 690.86800183 -0.01592475 692.22462704 -0.01568452 C712.47471915 -0.01210846 732.72480105 -0.01514388 752.97489189 -0.02273061 C753.63787314 -0.02297899 754.3008544 -0.02322738 754.98392599 -0.02348329 C755.97655114 -0.02385536 755.97655114 -0.02385536 756.98922932 -0.02423495 C779.34159556 -0.03252178 801.69393557 -0.0294355 824.04629808 -0.01364106 C836.92412563 -0.00484117 849.80189096 -0.00424424 862.67971688 -0.01557958 C871.28853843 -0.02232043 879.89731023 -0.01809531 888.50612443 -0.00506528 C893.40636613 0.00205048 898.30648445 0.00455421 903.20672213 -0.00628323 C940.35735602 -0.08240225 940.35735602 -0.08240225 956.68285482 3.38540266 C958.15506491 3.68459011 959.62744933 3.98292102 961.1000058 4.28039895 C964.30499285 4.94308201 967.49593593 5.6414365 970.68285482 6.38540266 C970.68285482 7.04540266 970.68285482 7.70540266 970.68285482 8.38540266 C971.21910482 8.43696516 971.75535482 8.48852766 972.30785482 8.54165266 C981.3053954 9.84392827 988.79469348 14.11139508 996.68285482 18.38540266 C997.75148764 18.95645735 998.82012045 19.52751204 999.92113607 20.11587141 C1029.68374247 36.71197379 1052.30314014 63.8455642 1064.68285482 95.38540266 C1065.18043295 96.49657454 1065.67801107 97.60774641 1066.19066732 98.75259016 C1067.7183325 102.471775 1068.81070643 106.17431562 1069.74535482 110.07290266 C1069.91526937 110.76988264 1070.08518393 111.46686262 1070.2602474 112.18496321 C1073.50141962 125.76116467 1074.83249766 139.2233491 1074.83002584 153.16553877 C1074.83370253 154.30013724 1074.83737922 155.4347357 1074.84116732 156.60371594 C1074.8521175 160.37852444 1074.85603316 164.15330533 1074.85985678 167.92812727 C1074.86560365 170.64603529 1074.87276353 173.36393929 1074.8797695 176.08184431 C1074.89943424 184.21535246 1074.90958578 192.34886167 1074.91849729 200.48238762 C1074.92201219 203.55315924 1074.92615814 206.62392987 1074.93033695 209.69470065 C1074.94879252 223.25774783 1074.96453998 236.82079504 1074.9722349 250.38385294 C1074.97414437 253.6953233 1074.97606477 257.00679366 1074.97802084 260.31826399 C1074.97850458 261.14117879 1074.97898832 261.96409358 1074.97948672 262.81194519 C1074.98777879 276.12852196 1075.01310745 289.44500868 1075.04560152 302.76154617 C1075.0787792 316.4713032 1075.09669315 330.18101461 1075.09987914 343.89081196 C1075.10203398 351.57305059 1075.11063133 359.25515774 1075.13634031 366.93735693 C1075.15819404 373.48207901 1075.16602636 380.02663761 1075.15637353 386.57139204 C1075.15187116 389.90166243 1075.15571861 393.23132686 1075.17313498 396.56159399 C1075.24772289 411.6811202 1074.40859853 425.70692441 1070.68285482 440.38540266 C1070.48388275 441.19769988 1070.28491067 442.0099971 1070.07990914 442.84690939 C1067.42722197 453.67062941 1063.88624193 463.52394987 1058.68285482 473.38540266 C1058.21274984 474.28234846 1058.21274984 474.28234846 1057.73314779 475.19741438 C1051.00308751 487.87401496 1042.5435913 498.97219708 1032.68285482 509.38540266 C1031.91328451 510.20782454 1031.1437142 511.03024641 1030.35082357 511.87759016 C1003.65916986 539.56101776 964.70143541 554.86318872 926.63757588 555.92654187 C920.69897716 556.00628935 914.76289427 555.99412031 908.82426415 555.94485378 C905.08176418 555.9196987 901.33926786 555.92483015 897.59670006 555.92581849 C891.06850496 555.92362431 884.54057537 555.90328367 878.01246565 555.87038992 C868.30486946 555.82165484 858.59736755 555.80267228 848.88966514 555.78997517 C833.54595695 555.76940057 818.20235407 555.73149477 802.8587166 555.68114862 C778.51093849 555.60136841 754.16326051 555.56748532 729.81536712 555.54799034 C720.42779246 555.54030603 711.04021889 555.53128 701.65264528 555.52241228 C700.08868813 555.52094927 700.08868813 555.52094927 698.49313588 555.51945669 C673.7245738 555.4961185 648.95603331 555.46115238 624.1874935 555.42080305 C623.10490721 555.41905284 622.02232092 555.41730262 620.90692899 555.41549937 C595.63188104 555.37445714 570.35688366 555.32357947 545.08190268 555.25197981 C543.99354824 555.24889848 542.90519381 555.24581714 541.78385894 555.24264243 C533.00934387 555.2177271 524.23482968 555.1925036 515.46031575 555.1671883 C479.26845044 555.06305092 443.07676388 555.00601335 406.88474402 555.00278895 C401.77334128 555.00227999 396.66193886 555.00116111 391.55053633 554.99963186 C390.54470153 554.99933859 389.53886673 554.99904532 388.50255209 554.99874316 C372.33553804 554.99250349 356.169083 554.93554078 340.00226742 554.85851756 C323.76001646 554.78200571 307.51830968 554.7554818 291.27589133 554.78011916 C281.63379075 554.79314974 271.99364629 554.76712256 262.35187929 554.68471501 C255.90412405 554.63345602 249.45765357 554.633427 243.00982764 554.67419766 C239.34047051 554.69594303 235.67480879 554.69616861 232.00584009 554.63347719 C217.40217739 554.3985302 205.92603327 554.3297698 194.96951468 564.91433168 C193.79781587 566.12200512 192.63751492 567.34085362 191.48954858 568.57110827 C188.33282633 571.74111064 184.71993507 574.30741393 181.12035482 576.94790266 C174.77561054 581.73896117 168.57564215 586.67977696 162.42528646 591.71718977 C157.31967643 595.89093893 152.12698379 599.93052587 146.88597982 603.93227766 C137.79411951 610.87698277 128.86191349 618.028381 119.93724936 625.18569563 C116.01696695 628.32704611 112.06964672 631.42886985 108.09301107 634.49868391 C106.17156674 636.00282915 104.26568746 637.52152104 102.36644857 639.05337141 C95.82678319 644.3264819 89.24335783 649.50556642 82.49535482 654.51040266 C76.69030104 658.81856893 71.11142901 663.29571806 65.59301107 667.96743391 C62.59699576 670.4567406 59.53329082 672.84155243 56.43285482 675.19790266 C51.43484646 678.99762888 46.54222266 682.91002991 41.68285482 686.88540266 C35.82757399 691.6719729 29.9013677 696.34007656 23.88988607 700.92837141 C20.48431359 703.52942846 17.11245918 706.17232259 13.74535482 708.82290266 C13.1638265 709.28068098 12.58229818 709.7384593 11.98314779 710.21010969 C10.80495342 711.13799887 9.62689383 712.0660592 8.44896811 712.99428938 C5.52914434 715.29414503 2.60583589 717.58956211 -0.31714518 719.88540266 C-1.48382879 720.80204776 -2.65049545 721.71871444 -3.81714518 722.63540266 C-6.15047851 724.468736 -8.48381184 726.30206933 -10.81714518 728.13540266 C-11.39512857 728.58955549 -11.97311197 729.04370833 -12.56861002 729.51162337 C-13.73030344 730.42433614 -14.89208668 731.3369346 -16.05396158 732.24941633 C-19.0474818 734.60062777 -22.03921272 736.95406305 -25.02808268 739.31118391 C-46.75138274 756.43530342 -46.75138274 756.43530342 -56.31714518 755.38540266 C-61.19746551 753.69606101 -64.85517126 750.97585603 -67.31714518 746.38540266 C-70.68739353 735.71639559 -66.32807763 721.99115635 -62.99292643 711.72915266 C-62.25852649 709.18210085 -61.83605413 706.69405385 -61.44214518 704.07290266 C-60.16333627 695.90898663 -58.14165108 687.93879929 -56.17993814 679.91762923 C-55.16941458 675.7806018 -54.16703891 671.64163101 -53.16480143 667.50259016 C-45.80187899 637.12060101 -45.80187899 637.12060101 -42.81323893 625.49453352 C-41.16141943 618.99896909 -39.86382376 612.45027639 -38.68701822 605.85268782 C-36.78619794 595.30514062 -34.33611254 584.95673437 -31.69214518 574.57290266 C-31.28027158 572.93693945 -30.86881143 571.30087208 -30.45777018 569.66469954 C-30.06491267 568.10666307 -29.67169749 566.54871673 -29.27808268 564.99087141 C-29.09579111 564.26909209 -28.91349955 563.54731276 -28.72568399 562.80366133 C-28.00151046 559.96150593 -27.24503968 557.16908619 -26.31714518 554.38540266 C-26.8765983 554.39700423 -27.43605143 554.40860579 -28.01245768 554.42055891 C-30.78219797 554.45172962 -33.5474885 554.42411451 -36.31714518 554.38540266 C-37.32132486 554.38153548 -38.32550455 554.37766829 -39.36011393 554.37368391 C-68.34779956 553.3693316 -97.91324829 538.28795657 -119.31714518 519.38540266 C-120.29167643 518.54364485 -121.26620768 517.70188704 -122.27027018 516.83462141 C-133.49692713 506.98085309 -142.57430509 495.89205563 -150.26734049 483.1031761 C-151.26610147 481.4689244 -152.31776433 479.86735307 -153.37183268 478.26821516 C-166.42962583 457.48752489 -172.4872808 429.45266901 -172.45085794 405.09096907 C-172.4531235 403.97244582 -172.45538906 402.85392258 -172.45772327 401.70150469 C-172.46404001 397.96331427 -172.46323538 394.22516032 -172.46240885 390.48696516 C-172.46540186 387.80241891 -172.46877663 385.11787549 -172.47258646 382.43333052 C-172.48087665 375.90250928 -172.4836406 369.37169708 -172.48419884 362.84087102 C-172.48467495 357.52702911 -172.48673446 352.21319017 -172.48989946 346.8993492 C-172.49870305 331.80984317 -172.50331952 316.72034425 -172.50256899 301.63083564 C-172.50252903 300.81813865 -172.50248908 300.00544167 -172.50244791 299.16811751 C-172.50240703 298.35441942 -172.50236615 297.54072134 -172.50232403 296.70236574 C-172.50191806 283.53165689 -172.51147594 270.3609767 -172.52558628 257.19027613 C-172.53998422 243.64335491 -172.54685453 230.09644763 -172.5459925 216.54951857 C-172.54566162 208.95348015 -172.54836052 201.35747175 -172.55917055 193.76144026 C-172.56832084 187.29048905 -172.57041406 180.81958145 -172.56366113 174.34862654 C-172.56041807 171.05347028 -172.56136623 167.75841392 -172.56901438 164.46326254 C-172.60580196 147.50653917 -172.12794158 131.29618095 -168.00464518 114.76040266 C-167.78445719 113.86853255 -167.5642692 112.97666243 -167.33740885 112.05776594 C-160.77327664 86.12440881 -147.75510933 64.5014249 -129.31714518 45.38540266 C-128.47796549 44.47145735 -127.6387858 43.55751204 -126.77417643 42.61587141 C-92.64482272 6.52446711 -47.14346803 -0.1042632 0 0 Z M-61.87964518 39.51040266 C-62.66210611 39.80898176 -63.44456705 40.10756087 -64.25073893 40.41518782 C-77.01506737 45.46257093 -88.05573824 52.25882422 -98.31714518 61.38540266 C-99.1447233 62.06989485 -99.97230143 62.75438704 -100.82495768 63.45962141 C-119.82668703 79.57237311 -133.28683479 103.73773403 -136.97090823 128.26315628 C-137.21760123 129.77525174 -137.50076156 131.28158741 -137.80827767 132.78249512 C-139.18532254 139.58479296 -139.60137648 146.05677718 -139.57111246 152.98485945 C-139.57423244 154.09989556 -139.57735242 155.21493167 -139.58056695 156.36375676 C-139.58849629 160.07203616 -139.58224303 163.78014961 -139.57593424 167.48843001 C-139.57864638 170.15858558 -139.58213671 172.82873002 -139.58655436 175.49888228 C-139.59541865 181.98217743 -139.59353944 188.46542612 -139.58772907 194.94872305 C-139.5832001 200.22199903 -139.58260501 205.49526204 -139.58477671 210.76853941 C-139.58508317 211.52096924 -139.58538964 212.27339908 -139.58570539 213.04862981 C-139.58634489 214.57751943 -139.58699332 216.10640905 -139.58765057 217.63529867 C-139.59334539 231.95160222 -139.58680972 246.26788011 -139.57604984 260.58417946 C-139.56711875 272.84638391 -139.56866437 285.10855047 -139.57788736 297.37075423 C-139.58861131 311.6350522 -139.59279232 325.89932771 -139.58666284 340.16362916 C-139.58602579 341.68729756 -139.58539705 343.21096597 -139.58477671 344.73463438 C-139.58446816 345.48416236 -139.5841596 346.23369034 -139.5838417 347.00593129 C-139.58212086 352.26684068 -139.58501673 357.52773571 -139.58973581 362.78864287 C-139.59536847 369.20874102 -139.59377853 375.62879031 -139.58317433 382.04888293 C-139.57794894 385.319382 -139.57689914 388.58978387 -139.58247263 391.86028479 C-139.58797404 395.41759589 -139.58103836 398.97468167 -139.57111246 402.53197859 C-139.5755739 403.54883722 -139.58003535 404.56569585 -139.58463199 405.61336838 C-139.53056359 415.66993417 -138.19480828 425.73184678 -135.31714518 435.38540266 C-135.01292643 436.44887923 -134.70870768 437.51235579 -134.39527018 438.60805891 C-125.09047315 468.91238072 -104.39714042 493.48089719 -77.00464518 509.19790266 C-69.14397117 513.24999732 -60.75825162 515.83481583 -52.31714518 518.38540266 C-50.59431314 518.9306761 -50.59431314 518.9306761 -48.83667643 519.48696516 C-44.68276393 520.54734238 -40.6406104 521.04952148 -36.37964518 521.44790266 C-35.52862223 521.53314192 -34.67759928 521.61838118 -33.80078775 521.70620344 C-28.83910228 522.17014629 -23.90039958 522.45801684 -18.91870768 522.59243391 C-17.3175712 522.63775252 -17.3175712 522.63775252 -15.68408854 522.68398665 C-13.60712969 522.73390511 -11.52966998 522.76671899 -9.45215494 522.78017805 C-3.21920523 522.92215749 0.60276571 523.68584646 5.68285482 527.38540266 C7.55785482 530.01040266 7.55785482 530.01040266 8.68285482 532.38540266 C9.01285482 533.04540266 9.34285482 533.70540266 9.68285482 534.38540266 C9.910269 539.82584945 9.43703277 544.75557046 8.24535482 550.07290266 C7.99289999 551.23825545 7.99289999 551.23825545 7.73534506 552.42715071 C5.35473318 563.18520646 2.67448549 573.87793132 0.0480892 584.57802962 C-2.3384825 594.30719428 -4.66361188 604.04483685 -6.82080729 613.82802962 C-7.83465614 618.40098424 -9.01378457 622.88387988 -10.31714518 627.38540266 C-10.65348315 628.88023811 -10.96832674 630.38018573 -11.25464518 631.88540266 C-11.41964518 632.73102766 -11.58464518 633.57665266 -11.75464518 634.44790266 C-12.17344996 636.63499432 -12.589712 638.82257319 -13.00464518 641.01040266 C-15.17529689 652.22543652 -15.17529689 652.22543652 -16.81714518 657.32290266 C-18.35889325 662.15584352 -19.23391417 667.0654696 -20.11524088 672.0497093 C-21.16832525 677.88191205 -22.54653768 683.6012337 -24.04736979 689.33315657 C-24.99287777 692.81293281 -24.99287777 692.81293281 -25.31714518 696.38540266 C-22.4592924 695.06319455 -20.16944415 693.58331932 -17.77027018 691.54946516 C-17.09866861 690.98614485 -16.42706705 690.42282454 -15.73511393 689.84243391 C-15.01968424 689.2378636 -14.30425455 688.63329329 -13.56714518 688.01040266 C-7.93035111 683.30179424 -2.23134793 678.74047371 3.68285482 674.38540266 C10.17554925 669.59720155 16.40834477 664.54977754 22.60643881 659.38759993 C27.49314432 655.32951215 32.49387026 651.48156796 37.60863607 647.71352766 C41.29348985 644.92296496 44.86148399 642.00636017 48.43285482 639.07290266 C53.83403911 634.63887259 59.31676554 630.35629879 64.93285482 626.19790266 C70.71815897 621.91319013 76.27243027 617.45918517 81.76879232 612.80727766 C85.31383267 609.86099748 88.9594837 607.06039588 92.62597006 604.26894758 C96.77997042 601.09935397 100.86471852 597.85176285 104.93285482 594.57290266 C110.34619736 590.21235025 115.83212093 585.96101227 121.37035482 581.76040266 C127.32423397 577.24159528 133.10373758 572.58616831 138.81566732 567.76430891 C143.37729338 563.97952653 148.10156744 560.40967359 152.8137142 556.81606673 C156.40837707 554.06466594 159.9832759 551.28781685 163.55785482 548.51040266 C164.32041586 547.91840071 165.08297689 547.32639876 165.86864584 546.71645735 C169.55206131 543.84971262 173.21912448 540.96590183 176.85082357 538.03384016 C177.50905111 537.50258528 178.16727865 536.9713304 178.84545248 536.42397688 C180.05771758 535.44226335 181.2673173 534.457243 182.47338217 533.46792219 C183.56433298 532.58344451 184.66559548 531.71147967 185.77847795 530.85476089 C187.05449208 529.8702279 188.31299401 528.86259767 189.55335632 527.83351137 C196.01070833 522.91402822 201.32362921 522.53743928 209.27565592 522.64267157 C211.15380715 522.63155199 211.15380715 522.63155199 213.06990083 522.62020777 C216.5400682 522.60049238 220.00919182 522.61800792 223.47929741 522.64167174 C227.25659652 522.66076989 231.03377642 522.64490227 234.81108414 522.63347111 C241.4298236 522.61822467 248.04825055 522.62515566 254.66696852 522.64662741 C264.50974144 522.67843085 274.3522938 522.67574939 284.19510241 522.66583699 C300.757752 522.65005301 317.32027585 522.66159159 333.88290709 522.68808745 C350.29545227 522.71413639 366.70791688 522.7260373 383.12048262 522.71971129 C384.14147173 522.71931788 385.16246085 522.71892447 386.21438904 522.71851914 C391.39998613 522.71641997 396.58558304 522.71402561 401.77117993 522.71148962 C412.31682211 522.70640555 422.86246485 522.70326191 433.40810793 522.70071982 C434.46385091 522.70046485 435.5195939 522.70020987 436.6073291 522.69994718 C461.73757374 522.69437092 486.86780214 522.70854302 511.99804037 522.72524641 C513.09756796 522.72597192 514.19709556 522.72669744 515.32994217 522.72744493 C524.23781118 522.73332406 533.14568016 522.73925384 542.05354909 522.74526609 C567.68022681 522.76253267 593.30690565 522.77498353 618.93358725 522.78481673 C620.57948072 522.78545776 620.57948072 522.78545776 622.25862457 522.78611174 C647.32337672 522.79579524 672.38812334 522.80129292 697.45287722 522.79649924 C698.50722576 522.79630077 699.56157431 522.7961023 700.64787281 522.79589781 C711.17603587 522.79385207 721.70419861 522.79126355 732.23236129 522.78777447 C754.830056 522.78048037 777.42766271 522.78518896 800.02534198 522.81400622 C816.50621178 522.83491885 832.98703938 522.84249636 849.46792176 522.8361592 C859.25078806 522.83289919 869.03349477 522.84095029 878.81633218 522.86525168 C885.36251381 522.88042754 891.90859418 522.88096516 898.4547838 522.86996537 C902.1771953 522.86413742 905.8993073 522.86441879 909.62168458 522.88281753 C932.65510668 522.98998264 952.53609288 520.7727721 973.68285482 511.38540266 C974.63780844 510.96968001 974.63780844 510.96968001 975.61205404 510.54555891 C985.05994457 506.37201256 992.80885163 500.9418849 1000.68285482 494.38540266 C1001.50656576 493.71509016 1002.3302767 493.04477766 1003.17894857 492.35415266 C1013.45307831 483.66476737 1020.73473114 472.76244728 1027.68285482 461.38540266 C1028.44275717 460.16337141 1028.44275717 460.16337141 1029.21801107 458.91665266 C1032.20932919 453.86708813 1034.06672361 448.68897876 1035.78832357 443.08462141 C1036.68285482 440.38540266 1036.68285482 440.38540266 1037.63877886 438.59214495 C1043.76143843 425.65138946 1042.12172794 409.39740189 1042.08968788 395.53058205 C1042.08491059 392.03968607 1042.0975058 388.54884276 1042.10770529 385.05796431 C1042.12480958 378.23864839 1042.12575091 371.41942495 1042.12049238 364.60009318 C1042.11643416 359.05233346 1042.11791374 353.50460085 1042.12324064 347.95684241 C1042.12436328 346.76786422 1042.12436328 346.76786422 1042.12550859 345.55486628 C1042.12704022 343.94408498 1042.12857857 342.3333037 1042.13012356 340.72252241 C1042.14381802 325.65308843 1042.13843219 310.58370651 1042.12693834 295.51427374 C1042.11700663 281.75874982 1042.129951 268.00336044 1042.15387253 254.24785726 C1042.17831321 240.08597576 1042.18785938 225.92415679 1042.18121981 211.76225464 C1042.17773893 203.82647341 1042.1798846 195.89079558 1042.19747084 187.95503042 C1042.21225506 181.20056941 1042.2127475 174.44628466 1042.19539993 167.69182687 C1042.1869388 164.25275259 1042.18461885 160.81399232 1042.20005148 157.37493513 C1042.24955271 143.43571565 1042.08130682 130.70310008 1037.68285482 117.38540266 C1037.12010759 115.40630628 1036.55756528 113.4271516 1035.99535482 111.44790266 C1025.07309742 80.12609834 1001.71526486 57.83189545 972.84691732 42.92055891 C956.31100706 34.94355821 939.04671866 33.07659068 920.93501776 33.13092707 C919.26562802 33.12853319 917.59623935 33.12526542 915.92685281 33.12121047 C911.35219776 33.11262199 906.77762516 33.11640378 902.20296891 33.12226619 C897.22113794 33.12644656 892.23932174 33.11902885 887.25749438 33.11311368 C878.53022222 33.10435743 869.80297353 33.10303754 861.07569807 33.10661696 C848.09769574 33.11192572 835.11971611 33.10582689 822.14171625 33.09753402 C798.2883302 33.08271092 774.43495216 33.0804443 750.58156265 33.0828544 C747.20356288 33.08319286 743.82556311 33.08351496 740.44756334 33.08382009 C739.7765762 33.08388113 739.10558907 33.08394217 738.41426898 33.08400507 C723.53395378 33.08527781 708.65364001 33.08267404 693.77332523 33.07929402 C690.3740213 33.07852328 686.97471735 33.07777854 683.57541341 33.07702901 C682.21109723 33.07672731 680.84678104 33.07642543 679.48246486 33.07612336 C678.80618957 33.07597368 678.12991428 33.075824 677.43314581 33.07566979 C676.06520789 33.07536626 674.69726998 33.07506157 673.32933207 33.07475574 C634.52142593 33.06608426 595.71352106 33.06143769 556.90561407 33.06570338 C555.82801853 33.06582046 555.82801853 33.06582046 554.72865338 33.06593991 C546.71804695 33.06681268 538.70744053 33.06774195 530.69683411 33.06869054 C529.97361594 33.06877605 529.25039778 33.06886156 528.50526391 33.06894966 C524.11814566 33.06946845 524.11814566 33.06946845 519.73102741 33.06999189 C473.47456489 33.07552731 427.21812233 33.06798591 380.96166342 33.04922102 C369.30639892 33.04449867 357.65113442 33.0398181 345.99586981 33.03538416 C345.27817387 33.03511084 344.56047794 33.03483752 343.82103364 33.03455591 C321.69530405 33.02618244 299.56957613 33.02150475 277.44384497 33.0206766 C276.40161377 33.02063705 276.40161377 33.02063705 275.33832741 33.0205967 C260.08418758 33.02005587 244.83004789 33.02042847 229.57590811 33.02163641 C224.11752276 33.02206202 218.6591374 33.02242715 213.20075204 33.02276585 C211.84289047 33.02285116 210.48502889 33.02294009 209.12716732 33.02303267 C187.50793238 33.0244803 165.88871103 33.01736261 144.26947935 33.00602871 C121.88481179 32.99436953 99.50016758 32.99382585 77.11549982 33.00587214 C64.21485777 33.01250387 51.31427953 33.01086238 38.41364258 32.99728362 C29.79319747 32.98904195 21.17280017 32.99173304 12.55235894 33.00325889 C7.64289186 33.00951803 2.73354933 33.01110899 -2.17591057 32.99939555 C-6.65044325 32.98881826 -11.12474645 32.99228019 -15.59926704 33.00650008 C-17.19991033 33.00920763 -18.80057236 33.00699836 -20.40119793 32.99899294 C-34.53307548 32.93319049 -48.60519805 34.32202156 -61.87964518 39.51040266 Z " fill="#3D3D3D" transform="translate(508.31714517623186,581.6145973373204)" />
  <path d="M0 0 C0.66 0 1.32 0 2 0 C2.23895996 0.50297607 2.47791992 1.00595215 2.72412109 1.52416992 C7.61466659 11.80705956 12.54011217 22.07226549 17.52734375 32.30859375 C17.92068909 33.11602524 18.31403442 33.92345673 18.71929932 34.75535583 C20.68677162 38.79266968 22.65639919 42.82891873 24.62841797 46.86401367 C25.00017151 47.62709335 25.37192505 48.39017303 25.75494385 49.17637634 C26.48725288 50.67552491 27.22395433 52.17253671 27.965271 53.66725159 C29.63038708 57.04863578 31.19655257 60.40772125 32.52490234 63.93652344 C34.61871162 69.93419681 34.61871162 69.93419681 39.01538086 74.15087891 C41.70123817 74.73189308 44.25440392 74.86921525 47 75 C48.88585432 75.28325482 50.77160574 75.56810231 52.65299988 75.87960815 C56.21977655 76.46740208 59.7982981 76.97667085 63.375 77.5 C64.50517044 77.66674225 64.50517044 77.66674225 65.65817261 77.83685303 C75.21468387 79.24272568 84.75054023 80.48441243 94.37548828 81.32763672 C102.33875625 82.05220201 110.15581242 83.47587029 118 85 C116.53033642 88.39859703 114.61962486 90.64963709 112 93.25 C111.29875 93.95640625 110.5975 94.6628125 109.875 95.390625 C108 97 108 97 106 97 C105.74551086 97.59214294 105.49102173 98.18428589 105.2288208 98.79437256 C103.86844982 101.23612124 102.48926307 102.52023012 100.33886719 104.29003906 C96.20572101 107.79100497 92.38109011 111.50585584 88.578125 115.359375 C87.91085388 116.03043274 87.24358276 116.70149048 86.55609131 117.3928833 C84.45158111 119.5094774 82.35038467 121.62931242 80.25 123.75 C77.4664444 126.5601925 74.6795599 129.3670222 71.890625 132.171875 C70.94210663 133.13284088 70.94210663 133.13284088 69.97442627 134.11322021 C65.36328176 138.74998479 65.36328176 138.74998479 62.56005859 140.67919922 C62.04523926 141.11506348 61.53041992 141.55092773 61 142 C61.11825623 145.15557408 61.45380019 147.91333596 62 151 C62.24682892 152.80405855 62.48877632 154.60878981 62.7265625 156.4140625 C63.0225851 158.48487206 63.32229563 160.5551566 63.625 162.625 C63.79032227 163.75711914 63.95564453 164.88923828 64.12597656 166.05566406 C65.23802687 173.45952637 66.48252422 180.82935033 67.8203125 188.1953125 C67.97871613 189.06777618 68.13711975 189.94023987 68.30032349 190.83914185 C69.09332322 195.19002994 69.8972485 199.53864711 70.71337891 203.88525391 C71.01208745 205.50161962 71.31075467 207.11799298 71.609375 208.734375 C71.74981232 209.46568634 71.89024963 210.19699768 72.03494263 210.95046997 C72.85118834 215.39854763 73.13099065 219.5036357 73 224 C68.30067407 222.58403607 64.08855659 220.6119368 59.78515625 218.2890625 C59.10064392 217.92453979 58.41613159 217.56001709 57.71087646 217.18444824 C55.49250924 216.00211204 53.27753788 214.81355982 51.0625 213.625 C48.76306602 212.3975437 46.46276905 211.1717159 44.16239929 209.9460144 C42.62787155 209.12827606 41.09362018 208.31001887 39.55964661 207.49124146 C32.09135801 203.50711249 24.58677813 199.59476182 17.06860352 195.70556641 C16.22740967 195.26905762 15.38621582 194.83254883 14.51953125 194.3828125 C13.35091553 193.78194824 13.35091553 193.78194824 12.15869141 193.16894531 C10.13857931 192.07504159 8.25016457 190.86630551 6.32421875 189.6171875 C2.05783693 187.5416504 0.54991926 187.64858513 -4 189 C-8.03623379 190.84604083 -11.92122351 192.9304606 -15.8125 195.0625 C-17.8796468 196.18183395 -19.94856849 197.29789836 -22.01953125 198.41015625 C-22.92807861 198.90652588 -23.83662598 199.40289551 -24.77270508 199.91430664 C-27 201 -27 201 -29 201 C-29 201.66 -29 202.32 -29 203 C-29.89976562 203.36351562 -30.79953125 203.72703125 -31.7265625 204.1015625 C-37.42891816 206.54706747 -42.88166492 209.49877267 -48.375 212.375 C-49.46039062 212.93960938 -50.54578125 213.50421875 -51.6640625 214.0859375 C-57.26211766 217.00666193 -62.81512225 219.97487693 -68.27978516 223.13916016 C-70 224 -70 224 -72 224 C-71.56981697 219.48307821 -71.05823599 215.14261713 -70.046875 210.71875 C-69.04357519 206.31305404 -68.29601415 201.90425818 -67.625 197.4375 C-66.4490192 189.80325139 -65.21306405 182.18074974 -63.9375 174.5625 C-63.77523926 173.59304443 -63.61297852 172.62358887 -63.44580078 171.62475586 C-63.20772705 170.2036853 -63.20772705 170.2036853 -62.96484375 168.75390625 C-62.80870605 167.8117627 -62.65256836 166.86961914 -62.49169922 165.89892578 C-62.15353869 163.90522263 -61.80012732 161.91406536 -61.43408203 159.92529297 C-59.02050923 149.84715528 -59.02050923 149.84715528 -61.09765625 140.19824219 C-62.63352804 138.44222877 -64.24784133 136.91442417 -66 135.375 C-66.55300781 134.85421875 -67.10601563 134.3334375 -67.67578125 133.796875 C-70.00748995 131.62061355 -72.39768503 129.51715127 -74.8175354 127.43945312 C-79.81726378 123.13710538 -84.51343506 118.60431618 -89.1484375 113.9140625 C-89.8870401 113.17167328 -90.6256427 112.42928406 -91.3866272 111.66439819 C-93.71855278 109.32036882 -96.04717257 106.97309879 -98.375 104.625 C-101.46329622 101.51017311 -104.55485052 98.39863372 -107.6484375 95.2890625 C-108.71087173 94.21418076 -108.71087173 94.21418076 -109.79476929 93.11758423 C-110.44950226 92.45954803 -111.10423523 91.80151184 -111.77880859 91.12353516 C-112.35424408 90.54286285 -112.92967957 89.96219055 -113.52255249 89.36392212 C-114.97408796 87.89708029 -114.97408796 87.89708029 -117 87 C-117 86.34 -117 85.68 -117 85 C-93.65137838 80.85917346 -93.65137838 80.85917346 -82.44140625 80.265625 C-77.49060251 79.88349713 -72.60662589 79.167929 -67.73144531 78.22412109 C-63.06266394 77.34260939 -58.83720917 76.9747827 -54.08203125 77.1796875 C-47.3861857 77.20960113 -41.65950287 76.8640343 -36 73 C-28.3438448 64.26074162 -24.21943405 52.10550633 -19.87011719 41.49658203 C-17.43866464 35.57838602 -14.63656323 29.86518319 -11.8125 24.125 C-10.9658736 22.34641843 -10.1219664 20.56653902 -9.28125 18.78515625 C-6.28622863 12.47367813 -3.16297965 6.22880293 0 0 Z " fill="#3C3C3C" transform="translate(959,747)" />
  <path d="M0 0 C0.99 0.33 1.98 0.66 3 1 C3.78115034 2.65973309 4.54963326 4.3279819 5.21963501 6.03561401 C6.46490864 9.17029856 8.02114366 12.15321417 9.54296875 15.16015625 C9.88563278 15.84159195 10.22829681 16.52302765 10.5813446 17.22511292 C11.71842641 19.48466344 12.85880579 21.74252385 14 24 C14.8250403 25.63264582 15.65007266 27.26529566 16.47509766 28.89794922 C16.89719513 29.7331308 17.3192926 30.56831238 17.75418091 31.42880249 C19.49992045 34.88539719 21.24216938 38.34374442 22.98364258 41.80249023 C23.876402 43.57275524 24.77129196 45.34194725 25.66821289 47.11010742 C26.98898088 49.71508153 28.30182827 52.3239202 29.61328125 54.93359375 C30.20862419 56.10105385 30.20862419 56.10105385 30.81599426 57.292099 C33.37152343 62.40161054 35.33724728 67.53506686 37 73 C37.69875244 73.04390869 38.39750488 73.08781738 39.11743164 73.13305664 C47.33499748 73.72478601 55.3316697 74.99390269 63.4375 76.4375 C73.58494926 78.2101872 83.69253648 79.66234034 93.96850586 80.45483398 C99.9162725 80.9162725 99.9162725 80.9162725 101 82 C104.26422335 82.2868146 107.52864491 82.44887605 110.80078125 82.62109375 C113.74200509 82.96944383 115.50352719 83.47745979 118 85 C113.84658499 90.13711856 109.36863663 94.47317026 104.3671875 98.7890625 C101.97050588 100.90860423 101.97050588 100.90860423 100.1953125 103.3359375 C98.41003249 105.50241609 96.80160499 107.11398361 94.69140625 108.91796875 C88.56410203 114.17542603 82.73794345 119.74154652 76.95141602 125.36889648 C75.60310284 126.67013556 74.24420395 127.9604901 72.87524414 129.23999023 C70.87817814 131.10927452 68.919499 133.01231138 66.96484375 134.92578125 C66.3504393 135.48654861 65.73603485 136.04731598 65.10301208 136.62507629 C62.73327747 139.00504762 61.13256008 140.75380355 60.76966858 144.16534424 C60.99472902 146.83614119 61.46112365 149.37418137 62 152 C62.37452755 154.23321938 62.74895053 156.46645629 63.12329102 158.69970703 C63.58001359 161.21970917 64.04039736 163.73904975 64.50390625 166.2578125 C64.74963872 167.61431287 64.99482174 168.97091288 65.23948669 170.3276062 C66.27031889 176.0386676 67.31020474 181.74806155 68.35522461 187.45654297 C68.9977152 190.968335 69.63334284 194.48131555 70.26493645 197.99508286 C70.62088005 199.96342815 70.9846142 201.9303596 71.348526 203.89724731 C72.44931239 210.02716768 73.29537569 215.7703467 73 222 C68.32513692 221.4524031 64.96447961 220.16594597 60.8515625 217.90234375 C59.9957811 217.43684616 59.9957811 217.43684616 59.12271118 216.96194458 C57.91004722 216.3012907 56.69946164 215.6368094 55.49084473 214.96878052 C52.36500355 213.24108096 49.22447951 211.54041911 46.0859375 209.8359375 C45.47202148 209.50149124 44.85810547 209.16704498 44.22558594 208.82246399 C37.24295021 205.02630105 30.147192 201.47371288 23 198 C23 197.34 23 196.68 23 196 C22.34 195.93167969 21.68 195.86335937 21 195.79296875 C16.1350836 194.50705986 12.11188939 191.64704265 7.8828125 188.97460938 C3.95101063 186.47902395 3.95101063 186.47902395 -0.50390625 186.48046875 C-1.32761719 186.98191406 -2.15132812 187.48335937 -3 188 C-4.25522963 188.63276624 -5.51477053 189.25701666 -6.77734375 189.875 C-8.86418608 190.93724833 -10.94785365 192.00533633 -13.02929688 193.078125 C-16.95054007 195.07033955 -20.77048288 196.72915918 -25 198 C-25 198.66 -25 199.32 -25 200 C-25.928125 200.37769531 -26.85625 200.75539063 -27.8125 201.14453125 C-33.01744266 203.37727397 -37.99157577 206.0503154 -43 208.6875 C-44.01151123 209.21698242 -45.02302246 209.74646484 -46.06518555 210.29199219 C-50.64595125 212.69360816 -55.21828902 215.10926387 -59.76953125 217.56640625 C-60.46240234 217.93999268 -61.15527344 218.3135791 -61.86914062 218.69848633 C-63.1343626 219.38307314 -64.39750556 220.07152091 -65.65820312 220.7644043 C-69.78175549 223 -69.78175549 223 -72 223 C-70.19227016 209.82664957 -70.19227016 209.82664957 -69 203.5625 C-68.21991988 199.42807536 -67.64182976 195.30044041 -67.125 191.125 C-66.32118886 184.86037664 -65.21739413 178.69668091 -64 172.5 C-62.34411402 164.03971989 -60.81494647 155.58910685 -60 147 C-59.82855469 146.03964844 -59.65710938 145.07929687 -59.48046875 144.08984375 C-60.33033335 139.03538586 -63.92661829 136.40843889 -67.5625 133 C-68.26697266 132.31421875 -68.97144531 131.6284375 -69.69726562 130.921875 C-73.4388615 127.30787271 -77.26961604 123.83624214 -81.27709961 120.51953125 C-83.62513691 118.44865352 -85.79646504 116.22399693 -88 114 C-89.04477797 112.96338689 -90.09082785 111.92805462 -91.13793945 110.89379883 C-94.20999316 107.85714527 -97.27609602 104.8145621 -100.34008789 101.76977539 C-101.66222634 100.45778332 -102.98614091 99.14757883 -104.31176758 97.83911133 C-106.22944426 95.94556231 -108.14070408 94.04574188 -110.05078125 92.14453125 C-110.6475618 91.55807327 -111.24434235 90.9716153 -111.85920715 90.36738586 C-113.27793655 88.94905011 -114.64458583 87.47895971 -116 86 C-116 85.34 -116 84.68 -116 84 C-105.26995699 82.30956864 -94.54276012 80.79559609 -83.75 79.5625 C-74.21196765 78.46854006 -64.76592198 77.06074993 -55.31738281 75.35766602 C-48.56186055 74.16338194 -41.84348142 73.46865981 -35 73 C-34.84023682 71.948125 -34.84023682 71.948125 -34.67724609 70.875 C-33.908394 67.61112033 -32.6743471 64.99344113 -31.1640625 62 C-30.30941406 60.2984375 -30.30941406 60.2984375 -29.4375 58.5625 C-28.839375 57.386875 -28.24125 56.21125 -27.625 55 C-26.73941406 53.2365625 -26.73941406 53.2365625 -25.8359375 51.4375 C-23.35739766 46.5250787 -20.84029668 41.712947 -18 37 C-17.40367801 35.55516698 -16.84148042 34.09582361 -16.3125 32.625 C-14.0285949 26.74460066 -11.04475805 21.31707238 -8.0390625 15.78515625 C-5.2211743 10.59241893 -2.60640902 5.3016729 0 0 Z " fill="#3C3C3C" transform="translate(651,748)" />
  <path d="M0 0 C2.99857894 2.58719713 4.45982909 5.54678386 6.21484375 9.06640625 C6.51185684 9.65993393 6.80886993 10.25346161 7.11488342 10.86497498 C7.74215095 12.12184616 8.36647286 13.38019118 8.98803711 14.63989258 C9.92403058 16.5352252 10.87035085 18.42510697 11.81835938 20.31445312 C14.82853032 26.35030828 17.62641776 32.39814601 20.05395508 38.69604492 C21.71239182 42.73492686 23.79812146 46.53919762 25.875 50.375 C26.75603632 52.02690241 27.63624515 53.67924643 28.515625 55.33203125 C29.15081055 56.5223999 29.15081055 56.5223999 29.79882812 57.73681641 C31.44032008 60.82962747 33.04253513 63.93901576 34.625 67.0625 C35.32496094 68.44115234 35.32496094 68.44115234 36.0390625 69.84765625 C37 72 37 72 37 74 C37.65162109 74.03810791 38.30324219 74.07621582 38.97460938 74.11547852 C47.74941231 74.72998352 56.33762574 76.09176028 65.00601196 77.52575684 C82.94785362 80.50141594 82.94785362 80.50141594 101.02734375 82.41772461 C106.05478517 82.81019479 111.20423363 83.36476546 116 85 C116.33 85.66 116.66 86.32 117 87 C116.00766026 88.19390875 115.00551846 89.37966913 114 90.5625 C113.443125 91.22378906 112.88625 91.88507813 112.3125 92.56640625 C110.39515877 94.58414879 108.47584623 96.34236695 106.36474609 98.14453125 C101.99301222 101.94908871 97.91439503 105.99152203 93.8515625 110.12109375 C92.33736771 111.64791354 90.8230411 113.17460261 89.30859375 114.70117188 C86.94976775 117.084976 84.59258711 119.47036703 82.23779297 121.8581543 C79.94668707 124.17927571 77.64955394 126.49429207 75.3515625 128.80859375 C74.28912827 129.89121742 74.28912827 129.89121742 73.20523071 130.99571228 C72.22313126 131.98287987 72.22313126 131.98287987 71.22119141 132.98999023 C70.64575592 133.57288315 70.07032043 134.15577606 69.47744751 134.7563324 C68 136 68 136 66 136 C65.67 136.99 65.34 137.98 65 139 C63.97519531 139.65162109 63.97519531 139.65162109 62.9296875 140.31640625 C60.69562252 141.87352104 60.69562252 141.87352104 60.7578125 144.71484375 C60.87898438 145.77832031 61.00015625 146.84179688 61.125 147.9375 C61.31642578 149.67386719 61.31642578 149.67386719 61.51171875 151.4453125 C62.5040107 158.66919792 63.652067 165.69858624 65.51171875 172.75390625 C66.12454336 175.57289945 66.46149112 178.38616117 66.8125 181.25 C67.94339379 190.32473308 69.63355436 199.29096171 71.32348633 208.27636719 C71.53900146 209.44458008 71.7545166 210.61279297 71.9765625 211.81640625 C72.17330566 212.86256104 72.37004883 213.90871582 72.57275391 214.98657227 C73.00474831 218.03349053 73.07520934 220.92703822 73 224 C69.60635895 223.31514019 66.86691948 222.01700859 63.80859375 220.41015625 C62.79128174 219.8783374 61.77396973 219.34651855 60.72583008 218.79858398 C59.64068115 218.22567627 58.55553223 217.65276855 57.4375 217.0625 C56.31432373 216.473479 55.19114746 215.88445801 54.03393555 215.27758789 C51.75245131 214.08045373 49.47192648 212.88148927 47.19238281 211.68066406 C44.43065382 210.22672231 41.66574682 208.77921804 38.8984375 207.3359375 C37.36973371 206.53656917 35.84108603 205.73709351 34.3125 204.9375 C33.56959717 204.55045898 32.82669434 204.16341797 32.0612793 203.76464844 C27.71819363 201.48572802 23.43783735 199.12084121 19.18359375 196.6796875 C18.19641357 196.12031494 17.2092334 195.56094238 16.19213867 194.98461914 C14.27568636 193.89543302 12.36772246 192.79112953 10.4699707 191.66967773 C6.7430376 189.56219195 3.95039129 188.06417077 -0.35546875 187.7734375 C-6.07020455 189.69672479 -11.25643257 192.46950982 -16.5625 195.3125 C-17.76636531 195.9482659 -18.97063533 196.58326599 -20.17529297 197.2175293 C-29.47552557 202.12849329 -38.71033943 207.16184455 -47.9296875 212.22265625 C-52.85560053 214.92521099 -57.79435568 217.60235495 -62.75 220.25 C-63.45979004 220.63325439 -64.16958008 221.01650879 -64.90087891 221.41137695 C-69.7675145 224 -69.7675145 224 -72 224 C-71.46900886 217.09060992 -70.63671487 210.36210511 -69.3125 203.5625 C-67.93071355 196.25613082 -66.64240005 188.93891771 -65.4375 181.6015625 C-65.30337204 180.78612473 -65.16924408 179.97068695 -65.03105164 179.13053894 C-64.48796475 175.82300124 -63.94619222 172.51527996 -63.41177368 169.20632935 C-63.03436913 166.8700671 -62.65227291 164.53461157 -62.26953125 162.19921875 C-62.09943542 161.13043991 -62.09943542 161.13043991 -61.92590332 160.04006958 C-61.11333775 155.11333775 -61.11333775 155.11333775 -60 154 C-58.73697264 150.19688427 -58.34908504 146.96511555 -59 143 C-62.09613077 138.6918403 -65.95072222 135.38132313 -70 132 C-75.69359801 127.1647267 -81.04691661 122.07679353 -86.296875 116.765625 C-87.0529303 116.00578308 -87.8089856 115.24594116 -88.58795166 114.46307373 C-90.97776683 112.06115104 -93.36428476 109.65599455 -95.75 107.25 C-98.90856826 104.06481993 -102.07044685 100.88297996 -105.234375 97.703125 C-105.9542157 96.97498596 -106.6740564 96.24684692 -107.41571045 95.49664307 C-108.42761444 94.47978424 -108.42761444 94.47978424 -109.45996094 93.44238281 C-110.34309967 92.55138885 -110.34309967 92.55138885 -111.24407959 91.64239502 C-113.00667847 89.92224363 -113.00667847 89.92224363 -115.22125244 88.40985107 C-115.80823914 87.94460022 -116.39522583 87.47934937 -117 87 C-117 86.34 -117 85.68 -117 85 C-112.46965468 84.32116583 -107.93879197 83.64592162 -103.4074707 82.97363281 C-101.87445547 82.7457155 -100.34157172 82.51691152 -98.80883789 82.28710938 C-90.67087334 81.06761814 -82.53446973 79.90791645 -74.359375 78.96484375 C-73.6612973 78.88421188 -72.9632196 78.80358002 -72.24398804 78.72050476 C-70.85066163 78.55988747 -69.45733077 78.39930871 -68.06399536 78.23876953 C-62.09225254 77.54793938 -56.1395026 76.78606049 -50.1875 75.9375 C-49.5267749 75.86088135 -48.8660498 75.7842627 -48.18530273 75.70532227 C-46.23704114 75.47674463 -44.29584545 75.19028338 -42.35546875 74.90234375 C-40.66393677 74.67792603 -40.66393677 74.67792603 -38.93823242 74.44897461 C-34.39363712 72.20783019 -33.7306596 68.56069855 -32 64 C-31.27414269 62.46491973 -30.52756789 60.93947085 -29.76098633 59.42431641 C-29.36990189 58.64545074 -28.97881744 57.86658508 -28.57588196 57.06411743 C-28.16541122 56.2514743 -27.75494049 55.43883118 -27.33203125 54.6015625 C-26.89291916 53.72712494 -26.45380707 52.85268738 -26.00138855 51.95175171 C-24.1478223 48.26070666 -22.28955874 44.5720337 -20.43139648 40.88330078 C-19.06313226 38.16529203 -17.69680955 35.44632324 -16.33203125 32.7265625 C-15.88586456 31.83745178 -15.43969788 30.94834106 -14.98001099 30.0322876 C-11.48849139 23.04416255 -8.11881862 16.00277967 -4.82563782 8.9190979 C-4.48187607 8.18315399 -4.13811432 7.44721008 -3.78393555 6.68896484 C-3.48617722 6.04631683 -3.18841888 5.40366882 -2.88163757 4.74154663 C-2 3 -2 3 0 0 Z " fill="#3C3C3C" transform="translate(1267,747)" />
  <path d="M0 0 C0.99 0.33 1.98 0.66 3 1 C2.26394531 1.53109375 1.52789062 2.0621875 0.76953125 2.609375 C-0.20628906 3.31578125 -1.18210937 4.0221875 -2.1875 4.75 C-3.63189453 5.79414062 -3.63189453 5.79414062 -5.10546875 6.859375 C-7.79129214 8.84565195 -10.40666793 10.89499188 -13 13 C-13.66 12.67 -14.32 12.34 -15 12 C-4.71095772 2.57981018 -4.71095772 2.57981018 0 0 Z " fill="#D6D6D6" transform="translate(424,632)" />
  <path d="M0 0 C0 4.22023957 -1.85196466 6.668279 -4.5625 9.8125 C-6 11 -6 11 -8 11 C-6.63629701 8.00779732 -5.05091917 5.70973471 -2.875 3.25 C-2.33617187 2.63640625 -1.79734375 2.0228125 -1.2421875 1.390625 C-0.62730469 0.70226562 -0.62730469 0.70226562 0 0 Z " fill="#D4D4D4" transform="translate(402,650)" />
  <path d="M0 0 C0.66 0.33 1.32 0.66 2 1 C-1.3 3.97 -4.6 6.94 -8 10 C-8.66 9.34 -9.32 8.68 -10 8 C-6.7 5.36 -3.4 2.72 0 0 Z " fill="#535353" transform="translate(550,1225)" />
  <path d="M0 0 C0 3 0 3 -1.375 4.6875 C-3 6 -3 6 -5 6 C-5 7.65 -5 9.3 -5 11 C-5.33 11 -5.66 11 -6 11 C-6.375 8.3125 -6.375 8.3125 -6 5 C-4.176017 2.93601924 -2.27236161 1.60958947 0 0 Z " fill="#CBCBCB" transform="translate(1025,884)" />
  <path d="M0 0 C0 2 0 2 -1.1875 3.6875 C-3 5 -3 5 -5.6875 4.6875 C-6.450625 4.460625 -7.21375 4.23375 -8 4 C-2.7826087 0 -2.7826087 0 0 0 Z M-7 5 C-5 6 -5 6 -5 6 Z " fill="#D0D0D0" transform="translate(1504,1119)" />
  <path d="M0 0 C0 3.39593478 -0.52165948 4.06619881 -2.5 6.6875 C-2.9640625 7.31011719 -3.428125 7.93273438 -3.90625 8.57421875 C-4.2671875 9.04472656 -4.628125 9.51523438 -5 10 C-5.66 9.34 -6.32 8.68 -7 8 C-4.69 5.36 -2.38 2.72 0 0 Z " fill="#585858" transform="translate(1524,1060)" />
  <path d="M0 0 C0 3 0 3 -1.3125 4.38671875 C-2.875 5.59114583 -4.4375 6.79557292 -6 8 C-6.66 7.67 -7.32 7.34 -8 7 C-5.36 4.69 -2.72 2.38 0 0 Z " fill="#D6D6D6" transform="translate(751,851)" />
  <path d="M0 0 C1.32 0.33 2.64 0.66 4 1 C2.02 3.31 0.04 5.62 -2 8 C-2.66 7.67 -3.32 7.34 -4 7 C-3.34 6.21625 -2.68 5.4325 -2 4.625 C0.20201441 2.28487188 0.20201441 2.28487188 0 0 Z " fill="#D5D5D5" transform="translate(1383,832)" />
  <path d="M0 0 C0.33 0.99 0.66 1.98 1 3 C-1.97 5.475 -1.97 5.475 -5 8 C-5.66 7.67 -6.32 7.34 -7 7 C-4.69 4.69 -2.38 2.38 0 0 Z " fill="#D0D0D0" transform="translate(740,861)" />
  <path d="M0 0 C2.31 0 4.62 0 7 0 C6.34 1.65 5.68 3.3 5 5 C3.35 3.35 1.7 1.7 0 0 Z " fill="#484848" transform="translate(1516,649)" />
</svg>